HIERARCHY
ROOT Hips
{
	OFFSET 0.000000 0.000000 0.000000
	CHANNELS 6 Xposition Yposition Zposition Zrotation Yrotation Xrotation 
	JOINT Spine1
	{
		OFFSET -0.013727 5.003762 -0.053727
		CHANNELS 3 Zrotation Yrotation Xrotation
		JOINT Spine2
		{
			OFFSET -0.000000 7.125302 -0.029825
			CHANNELS 3 Zrotation Yrotation Xrotation
			JOINT Chest
			{
				OFFSET -0.000001 7.550064 -0.815971
				CHANNELS 3 Zrotation Yrotation Xrotation
				JOINT Neck1
				{
					OFFSET -0.181676 26.311296 -0.553348
					CHANNELS 3 Zrotation Yrotation Xrotation
					JOINT Neck2
					{
						OFFSET -0.000003 7.709399 2.302586
						CHANNELS 3 Zrotation Yrotation Xrotation
						JOINT Head
						{
							OFFSET -0.000005 6.128912 1.953709
							CHANNELS 3 Zrotation Yrotation Xrotation
							JOINT HeadEnd
							{
								OFFSET 0.003598 16.065401 -1.835379
								CHANNELS 3 Zrotation Yrotation Xrotation
								End Site
								{
									OFFSET 0.000000 0.000000 0.000000
								}
							}
							JOINT Jaw
							{
								OFFSET 0.002637 0.475592 3.094941
								CHANNELS 3 Zrotation Yrotation Xrotation
								End Site
								{
									OFFSET 0.000000 0.000000 0.000000
								}
							}
							JOINT LeftEye
							{
								OFFSET 3.206381 5.380208 7.586883
								CHANNELS 3 Zrotation Yrotation Xrotation
								End Site
								{
									OFFSET 0.000000 0.000000 0.000000
								}
							}
							JOINT RightEye
							{
								OFFSET -3.222440 5.361868 7.558234
								CHANNELS 3 Zrotation Yrotation Xrotation
								End Site
								{
									OFFSET 0.000000 0.000000 0.000000
								}
							}
						}
					}
				}
				JOINT LeftShoulder
				{
					OFFSET 1.621652 23.237164 5.113413
					CHANNELS 3 Zrotation Yrotation Xrotation
					JOINT LeftArm
					{
						OFFSET 14.919845 0.000001 -5.502326
						CHANNELS 3 Zrotation Yrotation Xrotation
						JOINT LeftForeArm
						{
							OFFSET 28.739309 0.000003 -0.002588
							CHANNELS 3 Zrotation Yrotation Xrotation
							JOINT LeftHand
							{
								OFFSET 27.093979 -0.000003 0.002609
								CHANNELS 3 Zrotation Yrotation Xrotation
								JOINT LeftHandThumb1
								{
									OFFSET 2.276480 -1.392046 3.191413
									CHANNELS 3 Zrotation Yrotation Xrotation
									JOINT LeftHandThumb2
									{
										OFFSET 4.012841 -1.828125 1.641655
										CHANNELS 3 Zrotation Yrotation Xrotation
										JOINT LeftHandThumb3
										{
											OFFSET 2.798517 0.000002 -0.000003
											CHANNELS 3 Zrotation Yrotation Xrotation
											JOINT LeftHandThumbEnd
											{
												OFFSET 3.180790 -0.000002 0.000002
												CHANNELS 3 Zrotation Yrotation Xrotation
												End Site
												{
													OFFSET 0.000000 0.000000 0.000000
												}
											}
										}
									}
								}
								JOINT LeftHandIndex1
								{
									OFFSET 3.247554 -0.531998 2.296170
									CHANNELS 3 Zrotation Yrotation Xrotation
									JOINT LeftHandIndex2
									{
										OFFSET 6.364580 0.012062 0.178599
										CHANNELS 3 Zrotation Yrotation Xrotation
										JOINT LeftHandIndex3
										{
											OFFSET 3.662367 0.000001 0.000000
											CHANNELS 3 Zrotation Yrotation Xrotation
											JOINT LeftHandIndex4
											{
												OFFSET 2.329242 0.000002 0.000003
												CHANNELS 3 Zrotation Yrotation Xrotation
												JOINT LeftHandIndexEnd
												{
													OFFSET 2.759619 -0.180539 -0.113024
													CHANNELS 3 Zrotation Yrotation Xrotation
													End Site
													{
														OFFSET 0.000000 0.000000 0.000000
													}
												}
											}
										}
									}
								}
								JOINT LeftHandMiddle1
								{
									OFFSET 3.163500 0.240982 1.000333
									CHANNELS 3 Zrotation Yrotation Xrotation
									JOINT LeftHandMiddle2
									{
										OFFSET 6.190778 -0.259276 -1.002548
										CHANNELS 3 Zrotation Yrotation Xrotation
										JOINT LeftHandMiddle3
										{
											OFFSET 4.356522 -0.000007 -0.000000
											CHANNELS 3 Zrotation Yrotation Xrotation
											JOINT LeftHandMiddle4
											{
												OFFSET 2.996875 -0.000006 0.000001
												CHANNELS 3 Zrotation Yrotation Xrotation
												JOINT LeftHandMiddleEnd
												{
													OFFSET 2.304294 -0.294571 -0.031740
													CHANNELS 3 Zrotation Yrotation Xrotation
													End Site
													{
														OFFSET 0.000000 0.000000 0.000000
													}
												}
											}
										}
									}
								}
								JOINT LeftHandRing1
								{
									OFFSET 2.882642 -0.053650 -0.322543
									CHANNELS 3 Zrotation Yrotation Xrotation
									JOINT LeftHandRing2
									{
										OFFSET 5.854543 -0.486203 -1.373841
										CHANNELS 3 Zrotation Yrotation Xrotation
										JOINT LeftHandRing3
										{
											OFFSET 4.350580 -0.000001 0.000003
											CHANNELS 3 Zrotation Yrotation Xrotation
											JOINT LeftHandRing4
											{
												OFFSET 2.651325 0.000008 0.000004
												CHANNELS 3 Zrotation Yrotation Xrotation
												JOINT LeftHandRingEnd
												{
													OFFSET 1.936111 0.077683 -0.000071
													CHANNELS 3 Zrotation Yrotation Xrotation
													End Site
													{
														OFFSET 0.000000 0.000000 0.000000
													}
												}
											}
										}
									}
								}
								JOINT LeftHandPinky1
								{
									OFFSET 2.865500 -0.310003 -1.600378
									CHANNELS 3 Zrotation Yrotation Xrotation
									JOINT LeftHandPinky2
									{
										OFFSET 5.087852 -1.331142 -1.771231
										CHANNELS 3 Zrotation Yrotation Xrotation
										JOINT LeftHandPinky3
										{
											OFFSET 3.070976 0.000004 0.000001
											CHANNELS 3 Zrotation Yrotation Xrotation
											JOINT LeftHandPinky4
											{
												OFFSET 1.549667 -0.000000 0.000001
												CHANNELS 3 Zrotation Yrotation Xrotation
												JOINT LeftHandPinkyEnd
												{
													OFFSET 1.944895 -0.157802 0.057219
													CHANNELS 3 Zrotation Yrotation Xrotation
													End Site
													{
														OFFSET 0.000000 0.000000 0.000000
													}
												}
											}
										}
									}
								}
							}
						}
					}
				}
				JOINT RightShoulder
				{
					OFFSET -1.380118 23.180307 5.214158
					CHANNELS 3 Zrotation Yrotation Xrotation
					JOINT RightArm
					{
						OFFSET -15.037197 0.000012 -5.545604
						CHANNELS 3 Zrotation Yrotation Xrotation
						JOINT RightForeArm
						{
							OFFSET -28.736639 0.000004 -0.002597
							CHANNELS 3 Zrotation Yrotation Xrotation
							JOINT RightHand
							{
								OFFSET -27.133617 -0.000000 0.002612
								CHANNELS 3 Zrotation Yrotation Xrotation
								JOINT RightHandThumb1
								{
									OFFSET -2.274036 -1.383990 3.163127
									CHANNELS 3 Zrotation Yrotation Xrotation
									JOINT RightHandThumb2
									{
										OFFSET -4.011428 -1.827468 1.640914
										CHANNELS 3 Zrotation Yrotation Xrotation
										JOINT RightHandThumb3
										{
											OFFSET -2.794935 -0.000003 -0.000004
											CHANNELS 3 Zrotation Yrotation Xrotation
											JOINT RightHandThumbEnd
											{
												OFFSET -3.183856 0.000003 0.000000
												CHANNELS 3 Zrotation Yrotation Xrotation
												End Site
												{
													OFFSET 0.000000 0.000000 0.000000
												}
											}
										}
									}
								}
								JOINT RightHandIndex1
								{
									OFFSET -3.253270 -0.520059 2.282866
									CHANNELS 3 Zrotation Yrotation Xrotation
									JOINT RightHandIndex2
									{
										OFFSET -6.341919 0.012473 0.178265
										CHANNELS 3 Zrotation Yrotation Xrotation
										JOINT RightHandIndex3
										{
											OFFSET -3.654875 -0.000008 -0.000000
											CHANNELS 3 Zrotation Yrotation Xrotation
											JOINT RightHandIndex4
											{
												OFFSET -2.327586 -0.000001 -0.000001
												CHANNELS 3 Zrotation Yrotation Xrotation
												JOINT RightHandIndexEnd
												{
													OFFSET -2.761790 -0.180656 -0.113078
													CHANNELS 3 Zrotation Yrotation Xrotation
													End Site
													{
														OFFSET 0.000000 0.000000 0.000000
													}
												}
											}
										}
									}
								}
								JOINT RightHandMiddle1
								{
									OFFSET -3.168107 0.246593 1.001030
									CHANNELS 3 Zrotation Yrotation Xrotation
									JOINT RightHandMiddle2
									{
										OFFSET -6.180830 -0.258836 -1.000896
										CHANNELS 3 Zrotation Yrotation Xrotation
										JOINT RightHandMiddle3
										{
											OFFSET -4.348905 -0.000000 -0.000001
											CHANNELS 3 Zrotation Yrotation Xrotation
											JOINT RightHandMiddle4
											{
												OFFSET -3.000243 -0.000004 -0.000003
												CHANNELS 3 Zrotation Yrotation Xrotation
												JOINT RightHandMiddleEnd
												{
													OFFSET -2.302518 -0.294372 -0.031707
													CHANNELS 3 Zrotation Yrotation Xrotation
													End Site
													{
														OFFSET 0.000000 0.000000 0.000000
													}
												}
											}
										}
									}
								}
								JOINT RightHandRing1
								{
									OFFSET -2.885694 -0.067953 -0.308858
									CHANNELS 3 Zrotation Yrotation Xrotation
									JOINT RightHandRing2
									{
										OFFSET -5.854196 -0.486132 -1.373732
										CHANNELS 3 Zrotation Yrotation Xrotation
										JOINT RightHandRing3
										{
											OFFSET -4.338815 -0.000003 0.000000
											CHANNELS 3 Zrotation Yrotation Xrotation
											JOINT RightHandRing4
											{
												OFFSET -2.654905 -0.000005 0.000003
												CHANNELS 3 Zrotation Yrotation Xrotation
												JOINT RightHandRingEnd
												{
													OFFSET -1.933571 0.077524 -0.000052
													CHANNELS 3 Zrotation Yrotation Xrotation
													End Site
													{
														OFFSET 0.000000 0.000000 0.000000
													}
												}
											}
										}
									}
								}
								JOINT RightHandPinky1
								{
									OFFSET -2.866430 -0.342799 -1.584145
									CHANNELS 3 Zrotation Yrotation Xrotation
									JOINT RightHandPinky2
									{
										OFFSET -5.091371 -1.332054 -1.772385
										CHANNELS 3 Zrotation Yrotation Xrotation
										JOINT RightHandPinky3
										{
											OFFSET -3.062666 -0.000007 0.000000
											CHANNELS 3 Zrotation Yrotation Xrotation
											JOINT RightHandPinky4
											{
												OFFSET -1.546526 0.000005 -0.000003
												CHANNELS 3 Zrotation Yrotation Xrotation
												JOINT RightHandPinkyEnd
												{
													OFFSET -1.945122 -0.157721 0.057211
													CHANNELS 3 Zrotation Yrotation Xrotation
													End Site
													{
														OFFSET 0.000000 0.000000 0.000000
													}
												}
											}
										}
									}
								}
							}
						}
					}
				}
			}
		}
	}
	JOINT LeftLeg
	{
		OFFSET 10.043214 -8.434526 2.595655
		CHANNELS 3 Zrotation Yrotation Xrotation
		JOINT LeftShin
		{
			OFFSET -0.000002 -43.221752 -0.802913
			CHANNELS 3 Zrotation Yrotation Xrotation
			JOINT LeftFoot
			{
				OFFSET 0.000001 -42.155094 -3.481524
				CHANNELS 3 Zrotation Yrotation Xrotation
				JOINT LeftToeBase
				{
					OFFSET -0.000001 -5.059475 13.231529
					CHANNELS 3 Zrotation Yrotation Xrotation
					JOINT LeftToeEnd
					{
						OFFSET -0.009607 -1.647615 6.513017
						CHANNELS 3 Zrotation Yrotation Xrotation
						End Site
						{
							OFFSET 0.000000 0.000000 0.000000
						}
					}
				}
			}
		}
	}
	JOINT RightLeg
	{
		OFFSET -10.047277 -8.295260 2.620317
		CHANNELS 3 Zrotation Yrotation Xrotation
		JOINT RightShin
		{
			OFFSET 0.000000 -43.362209 -0.805555
			CHANNELS 3 Zrotation Yrotation Xrotation
			JOINT RightFoot
			{
				OFFSET 0.000001 -42.117393 -3.478397
				CHANNELS 3 Zrotation Yrotation Xrotation
				JOINT RightToeBase
				{
					OFFSET -0.000001 -5.079609 13.284196
					CHANNELS 3 Zrotation Yrotation Xrotation
					JOINT RightToeEnd
					{
						OFFSET 0.009533 -1.634383 6.460591
						CHANNELS 3 Zrotation Yrotation Xrotation
						End Site
						{
							OFFSET 0.000000 0.000000 0.000000
						}
					}
				}
			}
		}
	}
}
MOTION
Frames: 4
Frame Time: 0.033333
4.213342 92.174843 -2.494206 1.444659 -15.477133 -0.191706 -2.240074 -0.758664 0.304805 -0.288594 -3.641468 -4.685994 -0.863435 -6.007802 8.334387 9.928273 -3.086156 17.108582 -2.116096 -5.295223 -3.657470 2.282652 -7.201183 -7.216731 0.000077 -0.000021 0.000006 0.030045 -0.087269 0.001330 0.750060 -3.812357 -10.605737 -0.704238 3.653303 -10.603916 2.342233 -12.477230 9.624952 -52.174061 -53.586575 -11.278992 -177.974365 -52.832603 178.890137 5.580363 5.822330 -15.409852 -5.882101 9.861278 0.702591 -10.936859 -0.360575 7.156198 0.000001 8.774814 -0.000001 -15.920410 18.195877 6.309984 -1.844032 2.498502 -2.507276 -10.163591 4.678939 4.621105 -20.975996 -0.000004 0.000003 -21.226255 2.451688 -3.593991 0.000000 -0.000005 -0.000002 -1.362681 2.240796 -0.746323 -21.334892 0.584907 3.008320 -13.821198 -0.000002 0.000002 -23.887135 -0.249077 -0.839481 -60.362949 2.465533 -1.419713 -0.294023 1.679685 0.833255 -14.218194 0.093213 1.300580 -34.212013 -0.287563 0.967170 -20.033180 0.964534 1.212842 0.000000 -0.000002 0.000001 -3.440386 0.788233 0.501654 -15.928169 -3.167306 2.999704 -6.338817 -0.000002 0.000000 -18.123417 3.648173 -4.905662 -0.000003 -0.000000 -0.000002 -6.370420 6.368166 7.432186 53.820381 39.435730 -12.341717 -179.667038 45.919067 -179.811066 -23.694054 -5.746080 -1.823083 2.243539 -5.255032 -3.180156 14.282875 -0.826593 6.952495 -0.000002 -12.690591 -0.000000 16.672327 -17.867235 2.526823 1.665665 -1.955920 -2.878297 4.727794 -4.170583 4.993917 11.020511 0.000002 -0.000002 12.109030 -3.735710 -2.866778 0.000000 -0.000001 -0.000000 1.291984 -1.928548 -1.498088 14.800111 0.567467 3.865603 14.242551 -1.341733 -6.660648 19.631937 0.143927 -0.648243 50.111477 -0.796672 -6.045649 0.353029 -1.511148 -0.031941 20.222771 3.684304 2.316628 18.787247 0.000002 -0.000002 10.751609 -0.479866 1.397902 0.000001 -0.000000 0.000001 3.273804 0.305947 -0.580109 21.486788 11.830363 2.266127 8.162916 0.000002 -0.000000 18.399054 -3.798980 -4.940567 0.000003 -0.000001 -0.000000 15.003491 22.848719 -2.253032 -0.228152 -1.031716 34.518566 -17.674313 -1.303398 -22.981798 1.645902 -1.850975 -2.783069 0.000000 -0.000000 0.000002 -23.660553 -14.078406 -21.188311 0.515717 1.291194 19.554159 27.167553 12.533182 11.290323 -1.424209 0.932123 -3.081804 -0.000000 -0.000000 -0.000001 
3.641464 92.160210 -2.667471 1.581317 -14.092170 -0.166999 -2.228655 -0.766054 0.277852 -0.315108 -3.548083 -4.704684 -0.971632 -5.929699 8.370646 10.027886 -3.227731 16.994347 -2.136983 -5.353723 -3.642678 2.286422 -7.386399 -7.276018 0.000076 -0.000022 0.000006 0.029718 -0.067495 -0.005027 0.752892 -3.807735 -10.582899 -0.705248 3.658657 -10.580593 2.362778 -12.542235 9.644080 -52.461784 -53.862415 -10.648145 -178.102539 -53.033363 178.953796 5.570451 5.919080 -14.935815 -5.882102 9.861277 0.702591 -10.936858 -0.360576 7.156197 0.000002 8.774812 0.000002 -15.936911 18.224924 6.314975 -1.844033 2.498502 -2.507278 -10.163591 4.678939 4.621104 -20.975998 -0.000006 0.000002 -21.226255 2.451691 -3.593992 0.000000 -0.000005 -0.000001 -1.362679 2.240794 -0.746324 -21.334890 0.584910 3.008319 -13.821198 -0.000001 0.000002 -23.887133 -0.249078 -0.839482 -60.375687 2.497663 -1.412444 -0.294023 1.679685 0.833256 -14.218194 0.093215 1.300581 -34.212002 -0.287563 0.967170 -20.033178 0.964534 1.212841 0.000000 -0.000000 0.000000 -3.440387 0.788232 0.501656 -15.928165 -3.167305 2.999701 -6.338815 -0.000001 0.000000 -18.123415 3.648174 -4.905658 -0.000003 -0.000000 -0.000003 -6.621472 6.351190 7.465546 54.073170 38.702999 -12.731850 -179.798004 45.082031 -179.893280 -23.542305 -6.148258 -0.923471 2.243540 -5.255033 -3.180155 14.282877 -0.826593 6.952497 -0.000002 -12.690592 0.000001 16.595549 -17.853983 2.609968 1.665665 -1.955919 -2.878296 4.727793 -4.170584 4.993920 11.020510 0.000003 -0.000002 12.109033 -3.735711 -2.866779 -0.000001 -0.000003 -0.000000 1.291985 -1.928547 -1.498089 14.800114 0.567467 3.865602 14.242553 -1.341734 -6.660650 19.631941 0.143928 -0.648242 50.063278 -0.794618 -6.057676 0.353029 -1.511149 -0.031940 20.222769 3.684308 2.316627 18.787245 0.000004 0.000002 10.751612 -0.479870 1.397904 0.000002 0.000001 0.000001 3.273805 0.305947 -0.580111 21.486790 11.830366 2.266129 8.162918 0.000002 -0.000002 18.399054 -3.798981 -4.940567 0.000003 -0.000001 -0.000000 15.264529 22.362204 -2.691584 -0.234143 -0.993242 34.240097 -17.792433 -2.077373 -22.412062 1.648157 -1.851879 -2.713576 0.000000 0.000000 0.000002 -23.700279 -14.800797 -21.134590 0.518470 1.261282 20.803514 26.616169 12.593791 9.856423 -1.425247 0.961817 -2.897456 0.000000 -0.000001 -0.000001 
3.118567 92.211388 -2.855057 1.720672 -12.694262 -0.113616 -2.225204 -0.740456 0.271980 -0.339654 -3.464559 -4.711279 -1.076750 -5.824277 8.394712 10.063650 -3.320536 16.928663 -2.167479 -5.429608 -3.629392 2.360163 -7.605957 -7.333577 0.000077 -0.000022 0.000006 0.025423 -0.065291 -0.010108 0.752450 -3.787840 -10.569574 -0.716598 3.681751 -10.569635 2.415186 -12.646864 9.586702 -52.769135 -54.135719 -10.064393 -178.199112 -53.208504 179.069946 5.523085 6.012847 -14.350368 -5.882102 9.861279 0.702590 -10.936861 -0.360572 7.156198 0.000000 8.774813 0.000001 -15.958078 18.262394 6.333745 -1.844030 2.498500 -2.507276 -10.163590 4.678942 4.621105 -20.975996 -0.000003 0.000003 -21.226255 2.451694 -3.593993 0.000000 -0.000006 -0.000002 -1.362679 2.240796 -0.746321 -21.334887 0.584911 3.008322 -13.821195 -0.000000 0.000003 -23.887133 -0.249076 -0.839479 -60.404762 2.546813 -1.459237 -0.294024 1.679686 0.833254 -14.218194 0.093214 1.300581 -34.212006 -0.287563 0.967171 -20.033178 0.964536 1.212841 0.000001 -0.000000 0.000000 -3.440385 0.788232 0.501654 -15.928169 -3.167305 2.999704 -6.338820 -0.000001 0.000001 -18.123415 3.648178 -4.905661 -0.000004 0.000003 -0.000002 -6.835027 6.380355 7.568062 54.393963 37.971569 -13.140728 -179.929886 44.383022 -179.947845 -23.547300 -6.416966 -0.146563 2.243539 -5.255032 -3.180156 14.282873 -0.826590 6.952496 -0.000004 -12.690592 0.000000 16.548157 -17.837931 2.658929 1.665665 -1.955920 -2.878296 4.727793 -4.170583 4.993919 11.020510 0.000004 -0.000003 12.109032 -3.735709 -2.866780 -0.000001 -0.000002 -0.000000 1.291985 -1.928548 -1.498088 14.800111 0.567470 3.865603 14.242548 -1.341732 -6.660649 19.631939 0.143929 -0.648242 50.042870 -0.788405 -6.051605 0.353028 -1.511150 -0.031941 20.222767 3.684309 2.316629 18.787245 0.000007 0.000001 10.751609 -0.479865 1.397905 0.000001 -0.000000 0.000001 3.273804 0.305947 -0.580112 21.486790 11.830366 2.266132 8.162916 0.000002 0.000001 18.399054 -3.798977 -4.940565 0.000003 0.000000 -0.000001 15.447908 21.867674 -3.171313 -0.247568 -0.963715 33.883236 -17.921219 -2.834627 -21.756289 1.646790 -1.840053 -2.681655 0.000000 -0.000000 0.000002 -23.769392 -15.525794 -20.939903 0.528790 1.219061 21.693260 26.107298 12.558633 8.780888 -1.427170 0.975160 -2.803316 0.000000 0.000000 -0.000001 
2.702783 92.280258 -3.016538 1.859512 -11.420020 -0.029324 -2.233304 -0.729778 0.274760 -0.362807 -3.345718 -4.710193 -1.196805 -5.748624 8.391745 10.069563 -3.355760 16.881378 -2.210585 -5.545539 -3.609859 2.497409 -7.783313 -7.334861 0.000077 -0.000021 0.000006 0.019521 -0.048483 -0.014249 0.748050 -3.773035 -10.558372 -0.720520 3.692970 -10.551867 2.470750 -12.715977 9.479000 -53.000938 -54.323307 -9.554318 -178.191360 -53.320400 179.098633 5.485353 6.114718 -13.655885 -5.882103 9.861279 0.702590 -10.936859 -0.360575 7.156196 -0.000000 8.774816 0.000001 -15.988788 18.309427 6.305083 -1.844031 2.498502 -2.507275 -10.163589 4.678941 4.621106 -20.975998 -0.000001 0.000003 -21.226255 2.451695 -3.593992 0.000000 -0.000005 -0.000001 -1.362682 2.240797 -0.746325 -21.334890 0.584911 3.008321 -13.821197 -0.000001 0.000003 -23.887133 -0.249075 -0.839483 -60.389839 2.582723 -1.514898 -0.294024 1.679687 0.833255 -14.218192 0.093217 1.300579 -34.212002 -0.287560 0.967169 -20.033180 0.964537 1.212840 0.000000 0.000000 0.000000 -3.440388 0.788233 0.501656 -15.928167 -3.167304 2.999705 -6.338817 -0.000002 0.000002 -18.123415 3.648178 -4.905660 -0.000005 0.000002 -0.000003 -7.021015 6.455588 7.708256 54.726414 37.363289 -13.499575 -179.978104 43.795650 -179.979660 -23.640295 -6.529731 0.529727 2.243540 -5.255032 -3.180156 14.282878 -0.826594 6.952496 -0.000002 -12.690590 -0.000002 16.569309 -17.846161 2.702753 1.665664 -1.955920 -2.878294 4.727793 -4.170582 4.993919 11.020511 0.000003 -0.000001 12.109032 -3.735709 -2.866778 0.000000 -0.000003 -0.000000 1.291984 -1.928546 -1.498088 14.800114 0.567468 3.865605 14.242554 -1.341736 -6.660648 19.631939 0.143926 -0.648243 50.012413 -0.803960 -6.051049 0.353029 -1.511151 -0.031940 20.222767 3.684305 2.316628 18.787247 0.000003 0.000001 10.751610 -0.479866 1.397904 0.000001 0.000002 0.000000 3.273804 0.305947 -0.580110 21.486794 11.830360 2.266130 8.162917 0.000002 0.000000 18.399054 -3.798979 -4.940567 0.000003 -0.000001 -0.000001 15.505322 21.399353 -3.641001 -0.236050 -0.941075 33.485233 -18.030359 -3.463497 -21.135416 1.646943 -1.824797 -2.694752 0.000000 -0.000000 0.000002 -23.857925 -16.215166 -20.695948 0.520088 1.212000 22.278044 25.705336 12.432710 7.983759 -1.430812 0.965168 -2.754827 0.000000 0.000000 -0.000001 
